<?xml version="1.0" encoding="utf-8"?>
<!-- Generator: Adobe Illustrator 21.1.0, SVG Export Plug-In . SVG Version: 6.00 Build 0)  -->
<svg version="1.1" id="Layer_1" xmlns="http://www.w3.org/2000/svg" xmlns:xlink="http://www.w3.org/1999/xlink" x="0px" y="0px"
	 viewBox="0 0 319 151" style="enable-background:new 0 0 319 151;" xml:space="preserve">
<style type="text/css">
	.st0{clip-path:url(#SVGID_2_);fill:#B1B4B6;}
	.st1{clip-path:url(#SVGID_2_);fill:#4B95C1;}
	.st2{fill:#4B95C1;}
	.st3{clip-path:url(#SVGID_4_);fill:#4B95C1;}
	.st4{clip-path:url(#SVGID_4_);fill:#414042;}
	.st5{fill:#414042;}
	.st6{clip-path:url(#SVGID_6_);fill:#414042;}
	.st7{clip-path:url(#SVGID_8_);fill:#414042;}
	.st8{clip-path:url(#SVGID_10_);fill:#414042;}
	.st9{clip-path:url(#SVGID_12_);fill:#414042;}
</style>
<g>
	<defs>
		<rect id="SVGID_1_" x="-139" y="-221.3" width="595.3" height="595.3"/>
	</defs>
	<clipPath id="SVGID_2_">
		<use xlink:href="#SVGID_1_"  style="overflow:visible;"/>
	</clipPath>
	<path class="st0" d="M92.8,19.5c-1.7,0-3.5,0.8-4.7,2.1c-1.2,1.3-1.8,2.9-1.8,4.5c0.2,3.6,3,6.4,6.5,6.4c1.7,0,3.5-0.8,4.7-2.1
		c1.2-1.3,1.8-2.9,1.8-4.5C99.1,22.3,96.3,19.5,92.8,19.5"/>
	<path class="st0" d="M116.7,13.8c-1.5,0-2.9,0.6-4,1.8c-1,1.1-1.5,2.4-1.5,3.7c0.1,3,2.5,5.4,5.4,5.4c1.5,0,2.9-0.6,4-1.8
		c1-1.1,1.5-2.4,1.5-3.7C122,16.2,119.6,13.8,116.7,13.8"/>
	<path class="st0" d="M141.3,11.5c-2.3,0-4.5,2-4.4,4.4c0.1,2.4,1.9,4.4,4.4,4.4c2.3,0,4.5-2,4.4-4.4
		C145.5,13.5,143.7,11.5,141.3,11.5"/>
	<path class="st0" d="M170.7,15.9c-0.1-2.4-1.9-4.4-4.4-4.4c-2.3,0-4.5,2-4.4,4.4c0.1,2.4,1.9,4.4,4.4,4.4
		C168.6,20.3,170.8,18.2,170.7,15.9"/>
	<path class="st0" d="M190.9,24.7c1.5,0,2.9-0.6,4-1.8c1-1.1,1.5-2.4,1.5-3.7c-0.1-3-2.5-5.4-5.4-5.4c-1.5,0-2.9,0.6-4,1.8
		c-1,1.1-1.5,2.4-1.5,3.7C185.6,22.3,188,24.7,190.9,24.7"/>
	<path class="st0" d="M214.7,19.4c-1.7,0-3.5,0.8-4.7,2.1c-1.2,1.3-1.8,2.9-1.8,4.5c0.2,3.6,3,6.4,6.5,6.4c1.7,0,3.5-0.8,4.7-2.1
		c1.2-1.3,1.8-2.9,1.8-4.5C221.1,22.2,218.2,19.4,214.7,19.4"/>
	<path class="st1" d="M207.3,58.6c-4.1,0-7.4,3.3-7.4,7.4v0v4.1v14.5c0,4.1-3.4,7.5-7.5,7.5c-4.2,0-7.6-3.4-7.6-7.6V70.1V66
		c0-4.1-3.3-7.4-7.4-7.4c-4.1,0-7.4,3.3-7.4,7.4v3.7v0.4v14.4c0,9.6,6.1,17.9,14.7,21c2.4,0.9,4.9,1.3,7.6,1.3
		c2.6,0,5.1-0.5,7.5-1.3c8.6-3.1,14.7-11.3,14.7-20.9V69.7V66C214.7,61.9,211.4,58.6,207.3,58.6"/>
	<path class="st1" d="M161.9,93.2c-0.9-0.6-2-0.9-3.1-1c0,0,0,0,0,0c-0.1,0-0.2,0-0.3,0c-3.2-0.2-6-1.7-6.1-1.8c0,0,0,0,0,0l0,0
		c0,0,0,0-0.1,0c-0.6-0.3-5.7-3.3-12.4-3.8c-4.7-0.3-9,0.5-12.8,2.6c-0.6,0.3-1.2,0.6-1.7,1c-0.2,0.1-0.3,0.2-0.5,0.3
		c-3.4,2.1-7.6,2.3-11.1,0.5c-0.1,0-0.2-0.1-0.3-0.1c0,0-0.1,0-0.1-0.1c-0.1-0.1-0.3-0.1-0.4-0.2c0,0,0,0,0,0
		c-3.3-2-5.4-5.6-5.4-9.7c0-1.4,0.2-2.7,0.7-3.9c0.1-0.2,0.1-0.3,0.2-0.5c1.6-3.7,5-6.4,9.2-6.8c0,0,0.1,0,0.1,0c0.1,0,0.3,0,0.4,0
		c0.1,0,0.1,0,0.2,0c0.1,0,0.3,0,0.4,0c0.1,0,0.1,0,0.2,0c0.2,0,0.4,0,0.7,0c0.1,0,0.1,0,0.2,0c0.3,0,0.5,0,0.8,0.1c0,0,0,0,0,0
		c0.2,0,0.3,0.1,0.5,0.1c0,0,0.1,0,0.1,0c0.2,0,0.3,0.1,0.5,0.1c0,0,0.1,0,0.1,0c0.2,0,0.3,0.1,0.5,0.1c0,0,0,0,0,0
		c0.2,0.1,0.4,0.1,0.5,0.2c0.1,0,0.1,0.1,0.2,0.1c0.1,0,0.2,0.1,0.3,0.1c0.1,0.1,0.3,0.1,0.4,0.2c0.1,0,0.1,0.1,0.2,0.1
		c0.1,0.1,0.2,0.1,0.3,0.2c0,0,0.1,0,0.1,0c0.6,0.3,1.2,0.7,1.7,1.2c0,0,0,0,0,0c1.4,1.1,2.4,2.6,3.1,4.2c0,0,0.2,0.3,0.3,0.5
		c1.2,2.3,3.6,3.8,6.3,3.9h0.4c2.7-0.1,5.1-1.6,6.3-3.9c0.1-0.2,0.2-0.3,0.2-0.5c0.4-0.9,0.6-1.9,0.6-2.9c0-1-0.2-2-0.6-2.8
		c0,0,0,0,0,0c-1.3-3.1-3.2-5.8-5.5-8.2l0,0c-2.3-2.3-4.9-4-7.7-5.3c-0.2-0.1-0.5-0.2-0.7-0.3c-0.1-0.1-0.3-0.1-0.4-0.2
		c-0.3-0.1-0.6-0.2-0.9-0.3c-0.1,0-0.1,0-0.2-0.1c-0.4-0.1-0.7-0.2-1.1-0.4c0,0,0,0,0,0c-0.2-0.1-0.5-0.1-0.7-0.2
		c-0.1,0-0.3-0.1-0.4-0.1c-0.1,0-0.2,0-0.3-0.1c-0.2,0-0.4-0.1-0.5-0.1c0,0-0.1,0-0.1,0c-1.5-0.3-3.1-0.5-4.8-0.5c0,0,0,0-0.1,0
		c-0.1,0-0.3,0-0.4,0c-0.5,0-1,0-1.5,0c-0.1,0-0.1,0-0.2,0c-0.2,0-0.3,0-0.5,0c-0.1,0-0.3,0-0.4,0c-0.1,0-0.3,0-0.4,0
		c-0.3,0-0.5,0.1-0.8,0.1c0,0,0,0,0,0c-0.4,0.1-0.8,0.1-1.1,0.2c-0.1,0-0.1,0-0.2,0c-0.3,0.1-0.7,0.1-1,0.2c-0.1,0-0.2,0.1-0.3,0.1
		c-0.3,0.1-0.5,0.1-0.8,0.2c-4.1,1.2-8,3.4-11.2,6.6c-3.4,3.4-5.7,7.5-6.8,11.9c0,0,0,0,0,0c0,0.2-0.1,0.4-0.1,0.6
		c-0.1,0.3-0.1,0.5-0.2,0.8c0,0.1-0.1,0.3-0.1,0.4c0,0.1,0,0.2-0.1,0.4c0,0.2-0.1,0.3-0.1,0.5c0,0,0,0,0,0c0,0.1,0,0.2,0,0.3
		c0,0.3-0.1,0.7-0.1,1c0,0.1,0,0.1,0,0.2c0,0.4-0.1,0.7-0.1,1.1c0,0,0,0.1,0,0.1c0,0.4,0,0.8,0,1.2v0v0c0,0.4,0,0.8,0,1.2
		c0,0,0,0,0,0.1c0,0.4,0,0.8,0.1,1.2c0,0,0,0,0,0c0,0.4,0.1,0.8,0.1,1.2c0,0,0,0,0,0.1c0.1,0.4,0.1,0.8,0.2,1.1c0,0,0,0.1,0,0.1
		c0.1,0.4,0.1,0.7,0.2,1.1c0,0.1,0,0.1,0.1,0.2c0.1,0.3,0.2,0.6,0.3,0.9c0,0.1,0.1,0.2,0.1,0.4c0.1,0.3,0.2,0.5,0.2,0.8
		c0.1,0.2,0.1,0.4,0.2,0.5c0,0.1,0.1,0.2,0.1,0.2c1.3,3.4,3.2,6.5,5.9,9.2c1.9,1.9,4.1,3.5,6.4,4.7c0,0,0.1,0,0.1,0.1
		c0.1,0,0.2,0.1,0.3,0.1c0.2,0.1,0.4,0.2,0.6,0.3c0,0,0,0,0,0c3.3,1.5,7,2.4,10.8,2.4v0c2.8,0,5.5-0.4,8.2-1.3
		c2.1-0.7,4-1.6,5.9-2.8c0.1-0.1,0.3-0.2,0.4-0.3c1.9-1.2,3.7-1.3,5.1-1.3c3.4,0.1,6.2,1.7,6.4,1.8c0,0,0,0,0,0c0,0,0,0,0.1,0
		c0.6,0.3,5.7,3.3,12.4,3.8l0,0c0.3,0,0.5,0,0.8,0c3.7,0,6.8-2.8,7.2-6.3c0-0.3,0.1-0.7,0.1-1C165.5,96.8,164,94.5,161.9,93.2"/>
	<path class="st1" d="M307.9,80.8c0-5.7-2.2-10.9-5.7-14.9c-4.1-4.5-10-7.4-16.5-7.4h-14.9h-6.9c-4.1,0-7.4,3.3-7.4,7.4v0v14.9v14.9
		v0c0,4.1,3.3,7.4,7.4,7.4h6.9h14.9c6.5,0,12.4-2.8,16.5-7.4C305.7,91.8,307.9,86.6,307.9,80.8L307.9,80.8L307.9,80.8 M285.7,88.4
		h-14.5v-7.5v-7.5h14.5c4.1,0,7.5,3.4,7.5,7.5C293.2,85,289.8,88.4,285.7,88.4"/>
</g>
<rect x="228.3" y="58.6" class="st2" width="14.6" height="44.5"/>
<rect x="64.6" y="58.6" class="st2" width="14.6" height="44.5"/>
<g>
	<defs>
		<rect id="SVGID_3_" x="-139" y="-221.3" width="595.3" height="595.3"/>
	</defs>
	<clipPath id="SVGID_4_">
		<use xlink:href="#SVGID_3_"  style="overflow:visible;"/>
	</clipPath>
	<path class="st3" d="M9.4,65.9v29.9c0,4,3.3,7.3,7.3,7.3h27c4,0,7.3-3.3,7.3-7.3v0c0-4-3.3-7.3-7.3-7.3H31.3c-4,0-7.3-3.3-7.3-7.3
		V65.9c0-4-3.3-7.3-7.3-7.3C12.7,58.6,9.4,61.9,9.4,65.9"/>
	<path class="st4" d="M71.9,36c-4.6,0-9,4-8.8,8.8c0.2,4.8,3.9,8.8,8.8,8.8c4.6,0,9-4,8.8-8.8C80.5,40,76.9,36,71.9,36"/>
	<path class="st4" d="M244.4,44.8c-0.2-4.8-3.9-8.8-8.8-8.8c-4.6,0-9,4-8.8,8.8c0.2,4.8,3.9,8.8,8.8,8.8
		C240.2,53.6,244.6,49.5,244.4,44.8"/>
	<path class="st4" d="M208.5,73.2c3.5-0.6,6.1-3.6,6.1-7.3c0-4.1-3.3-7.4-7.4-7.4h0c-3.7,0-6.7,2.7-7.3,6.1
		c-0.1,0.4-0.1,0.8-0.1,1.2v7.4h7.4C207.7,73.4,208.1,73.3,208.5,73.2"/>
	<path class="st4" d="M150.9,100.7c0.6,3.5,3.6,6.1,7.2,6.1c4.1,0,7.4-3.3,7.4-7.3v0c0-3.6-2.7-6.7-6.1-7.2
		c-0.4-0.1-0.8-0.1-1.2-0.1h-7.3v7.4C150.8,99.9,150.8,100.3,150.9,100.7"/>
	<path class="st4" d="M262.6,88.5c-3.5,0.6-6.1,3.6-6.1,7.3c0,4.1,3.3,7.4,7.4,7.4h0c3.6,0,6.7-2.7,7.3-6.1c0.1-0.4,0.1-0.8,0.1-1.2
		v-7.4h-7.4C263.4,88.4,263,88.4,262.6,88.5"/>
</g>
<rect x="43" y="124.7" class="st5" width="2.3" height="15.4"/>
<polygon class="st5" points="53.2,140.1 55.5,140.1 55.5,129.3 66.7,141 66.7,124.7 64.4,124.7 64.4,135.4 53.2,123.6 "/>
<polygon class="st5" points="83.9,124.7 79.6,135.4 75.3,124.7 72.8,124.7 79.5,141.2 86.5,124.7 "/>
<polygon class="st5" points="101,126.8 94.8,126.8 94.8,130.6 100.8,130.6 100.8,132.7 94.8,132.7 94.8,137.9 101,137.9 101,140.1 
	92.5,140.1 92.5,124.7 101,124.7 "/>
<g>
	<defs>
		<rect id="SVGID_5_" x="-139" y="-221.3" width="595.3" height="595.3"/>
	</defs>
	<clipPath id="SVGID_6_">
		<use xlink:href="#SVGID_5_"  style="overflow:visible;"/>
	</clipPath>
	<path class="st6" d="M116.9,127l-1.9,1.1c-0.4-0.6-0.7-1-1-1.2c-0.3-0.2-0.8-0.3-1.3-0.3c-0.6,0-1.2,0.2-1.6,0.6
		c-0.4,0.4-0.6,0.8-0.6,1.4c0,0.8,0.6,1.4,1.7,1.8l1.5,0.6c1.3,0.5,2.2,1.1,2.8,1.9c0.6,0.7,0.9,1.6,0.9,2.7c0,1.4-0.5,2.6-1.4,3.5
		c-1,0.9-2.1,1.4-3.5,1.4c-1.3,0-2.4-0.4-3.3-1.2c-0.9-0.8-1.4-1.9-1.6-3.3l2.4-0.5c0.1,0.9,0.3,1.5,0.6,1.9c0.5,0.7,1.2,1,2.1,1
		c0.7,0,1.3-0.2,1.8-0.7c0.5-0.5,0.7-1.1,0.7-1.8c0-0.3,0-0.6-0.1-0.8c-0.1-0.2-0.2-0.5-0.4-0.7c-0.2-0.2-0.4-0.4-0.7-0.6
		c-0.3-0.2-0.6-0.4-1-0.5l-1.5-0.6c-2.1-0.9-3.2-2.2-3.2-3.9c0-1.2,0.4-2.1,1.3-2.9c0.9-0.8,2-1.2,3.3-1.2
		C114.5,124.4,115.9,125.2,116.9,127"/>
</g>
<polygon class="st5" points="128.7,126.8 128.7,140.1 126.4,140.1 126.4,126.8 122.8,126.8 122.8,124.7 132.3,124.7 132.3,126.8 "/>
<rect x="138.4" y="124.7" class="st5" width="2.3" height="15.4"/>
<g>
	<defs>
		<rect id="SVGID_7_" x="-139" y="-221.3" width="595.3" height="595.3"/>
	</defs>
	<clipPath id="SVGID_8_">
		<use xlink:href="#SVGID_7_"  style="overflow:visible;"/>
	</clipPath>
	<path class="st7" d="M156.5,132.1h6.4v0.5c0,1.2-0.1,2.2-0.4,3.1c-0.3,0.8-0.7,1.6-1.3,2.3c-1.4,1.6-3.3,2.4-5.5,2.4
		c-2.2,0-4-0.8-5.5-2.3c-1.5-1.6-2.3-3.4-2.3-5.6c0-2.2,0.8-4.1,2.4-5.7c1.6-1.6,3.5-2.3,5.7-2.3c1.2,0,2.3,0.2,3.4,0.7
		c1,0.5,2,1.3,3,2.4l-1.7,1.6c-1.3-1.7-2.8-2.5-4.6-2.5c-1.6,0-3,0.6-4.1,1.7c-1.1,1.1-1.7,2.5-1.7,4.2c0,1.7,0.6,3.1,1.9,4.2
		c1.2,1,2.4,1.5,3.7,1.5c1.1,0,2.2-0.4,3.1-1.2c0.9-0.8,1.4-1.7,1.5-2.8h-3.8V132.1z"/>
</g>
<path class="st5" d="M177.3,134.1l-2.3-5.2l-2.4,5.2H177.3z M178.3,136.3h-6.6l-1.7,3.7h-2.5l7.6-16.4l7.4,16.4h-2.5L178.3,136.3z"
	/>
<polygon class="st5" points="191.9,126.8 191.9,140.1 189.5,140.1 189.5,126.8 186,126.8 186,124.7 195.4,124.7 195.4,126.8 "/>
<rect x="201.6" y="124.7" class="st5" width="2.3" height="15.4"/>
<g>
	<defs>
		<rect id="SVGID_9_" x="-139" y="-221.3" width="595.3" height="595.3"/>
	</defs>
	<clipPath id="SVGID_10_">
		<use xlink:href="#SVGID_9_"  style="overflow:visible;"/>
	</clipPath>
	<path class="st8" d="M213.3,132.3c0,1.7,0.6,3.1,1.7,4.2c1.1,1.1,2.5,1.6,3.9,1.6c1.6,0,3-0.6,4.1-1.7c1.1-1.1,1.7-2.5,1.7-4.1
		c0-1.6-0.5-3-1.6-4.1c-1.1-1.1-2.4-1.7-4.1-1.7c-1.6,0-3,0.6-4.1,1.7C213.9,129.3,213.3,130.7,213.3,132.3 M210.9,132.3
		c0-2.2,0.8-4,2.4-5.6c1.6-1.6,3.5-2.3,5.7-2.3c2.2,0,4.1,0.8,5.7,2.4c1.6,1.6,2.4,3.5,2.4,5.7c0,2.2-0.8,4.1-2.4,5.6
		c-1.6,1.6-3.5,2.3-5.8,2.3c-2,0-3.8-0.7-5.4-2.1C211.8,136.8,210.9,134.8,210.9,132.3"/>
</g>
<polygon class="st5" points="234.1,140.1 236.4,140.1 236.4,129.3 247.7,141 247.7,124.7 245.4,124.7 245.4,135.4 234.1,123.6 "/>
<g>
	<defs>
		<rect id="SVGID_11_" x="-139" y="-221.3" width="595.3" height="595.3"/>
	</defs>
	<clipPath id="SVGID_12_">
		<use xlink:href="#SVGID_11_"  style="overflow:visible;"/>
	</clipPath>
	<path class="st9" d="M264.2,127l-1.9,1.1c-0.4-0.6-0.7-1-1-1.2c-0.3-0.2-0.8-0.3-1.3-0.3c-0.6,0-1.2,0.2-1.6,0.6
		c-0.4,0.4-0.6,0.8-0.6,1.4c0,0.8,0.6,1.4,1.7,1.8l1.5,0.6c1.3,0.5,2.2,1.1,2.7,1.9c0.6,0.7,0.9,1.6,0.9,2.7c0,1.4-0.5,2.6-1.4,3.5
		c-1,0.9-2.1,1.4-3.5,1.4c-1.3,0-2.4-0.4-3.3-1.2c-0.9-0.8-1.4-1.9-1.6-3.3l2.4-0.5c0.1,0.9,0.3,1.5,0.6,1.9c0.5,0.7,1.2,1,2.1,1
		c0.7,0,1.3-0.2,1.8-0.7c0.5-0.5,0.7-1.1,0.7-1.8c0-0.3,0-0.6-0.1-0.8c-0.1-0.2-0.2-0.5-0.4-0.7c-0.2-0.2-0.4-0.4-0.7-0.6
		c-0.3-0.2-0.6-0.4-1-0.5l-1.5-0.6c-2.1-0.9-3.2-2.2-3.2-3.9c0-1.2,0.4-2.1,1.3-2.9c0.9-0.8,2-1.2,3.3-1.2
		C261.8,124.4,263.2,125.2,264.2,127"/>
	<path class="st9" d="M15.5,73.1c-3.5-0.6-6.1-3.6-6.1-7.2c0-4,3.3-7.3,7.3-7.3h0c3.6,0,6.6,2.6,7.2,6.1c0.1,0.4,0.1,0.8,0.1,1.2
		v7.3h-7.3C16.3,73.2,15.9,73.2,15.5,73.1"/>
</g>
</svg>
